<?xml version="1.0" encoding="UTF-8"?>
<svg id="Vrstva_1" xmlns="http://www.w3.org/2000/svg" version="1.1" viewBox="0 0 263.86 181.97">
  <!-- Generator: Adobe Illustrator 29.8.2, SVG Export Plug-In . SVG Version: 2.1.1 Build 3)  -->
  <defs>
    <style>
      .st0 {
        fill: #cf63ce;
      }

      .st1 {
        fill: #8e1537;
      }
    </style>
  </defs>
  <path class="st1" d="M2.75,1.37h15.07v39.04h16.17V1.37h15.07v95.9h-15.07v-43.15h-16.17v43.15H2.75V1.37Z"/>
  <path class="st1" d="M59.19,74.52V24.11c0-15.34,8.08-24.11,22.88-24.11s22.88,8.77,22.88,24.11v50.41c0,15.34-8.08,24.11-22.88,24.11s-22.88-8.77-22.88-24.11ZM89.88,75.48V23.15c0-6.85-3.01-9.45-7.81-9.45s-7.81,2.6-7.81,9.45v52.33c0,6.85,3.01,9.45,7.81,9.45s7.81-2.6,7.81-9.45Z"/>
  <path class="st1" d="M115.09,1.37h15.07v82.2h24.8v13.7h-39.86V1.37Z"/>
  <path class="st1" d="M161.67,74.52V1.37h15.07v74.25c0,6.85,2.88,9.32,7.67,9.32s7.67-2.47,7.67-9.32V1.37h14.52v73.15c0,15.34-7.67,24.11-22.47,24.11s-22.47-8.77-22.47-24.11Z"/>
  <path class="st1" d="M217.29,1.37h22.74c15.62,0,22.33,7.26,22.33,22.06v3.84c0,9.86-3.01,16.03-9.73,18.77v.27c8.08,2.74,11.23,9.86,11.23,20v8.22c0,14.8-7.81,22.74-22.88,22.74h-23.7V1.37ZM238.25,40.41c5.62,0,9.04-2.47,9.04-10.14v-5.34c0-6.85-2.33-9.86-7.67-9.86h-7.26v25.34h5.89ZM240.99,83.57c5.07,0,7.81-2.33,7.81-9.45v-8.36c0-8.9-2.88-11.64-9.73-11.64h-6.71v29.45h8.63Z"/>
  <path class="st0" d="M0,132.26h11.41c7.98,0,11.41,3.71,11.41,11.27v3.01c0,5.04-1.61,8.26-5.04,9.66v.14c3.85,1.19,5.11,4.83,5.11,10.36v8.61c0,2.38.07,4.13.84,5.95h-7.84c-.42-1.26-.7-2.03-.7-6.02v-8.96c0-4.55-1.33-6.02-4.83-6.02h-2.66v21H0v-49ZM10.5,153.26c2.87,0,4.62-1.26,4.62-5.18v-3.78c0-3.5-1.19-5.04-3.92-5.04h-3.5v14h2.8Z"/>
  <path class="st0" d="M28.21,132.26h21v7h-13.3v12.95h10.57v7h-10.57v15.05h13.3v7h-21v-49Z"/>
  <path class="st0" d="M52.43,169.64v-2.8h7.28v3.36c0,3.5,1.54,4.76,3.99,4.76s3.99-1.26,3.99-4.9c0-4.06-1.54-6.65-6.58-11.06-6.44-5.67-8.54-9.66-8.54-15.26,0-7.7,3.99-12.18,11.48-12.18s11.2,4.48,11.2,12.32v2.03h-7.28v-2.52c0-3.5-1.4-4.83-3.85-4.83s-3.85,1.33-3.85,4.69c0,3.57,1.61,6.16,6.65,10.57,6.44,5.67,8.47,9.59,8.47,15.68,0,7.98-4.06,12.46-11.62,12.46s-11.34-4.48-11.34-12.32Z"/>
  <path class="st0" d="M85.82,139.26h-8.05v-7h23.8v7h-8.05v42h-7.7v-42Z"/>
  <path class="st0" d="M108.01,132.26h10.43l7.98,49h-7.7l-1.4-9.73v.14h-8.75l-1.4,9.59h-7.14l7.98-49ZM116.41,165.02l-3.43-24.22h-.14l-3.36,24.22h6.93Z"/>
  <path class="st0" d="M129.71,169.64v-37.38h7.7v37.94c0,3.5,1.47,4.76,3.92,4.76s3.92-1.26,3.92-4.76v-37.94h7.42v37.38c0,7.84-3.92,12.32-11.48,12.32s-11.48-4.48-11.48-12.32Z"/>
  <path class="st0" d="M158.13,132.26h11.41c7.98,0,11.41,3.71,11.41,11.27v3.01c0,5.04-1.61,8.26-5.04,9.66v.14c3.85,1.19,5.11,4.83,5.11,10.36v8.61c0,2.38.07,4.13.84,5.95h-7.84c-.42-1.26-.7-2.03-.7-6.02v-8.96c0-4.55-1.33-6.02-4.83-6.02h-2.66v21h-7.7v-49ZM168.63,153.26c2.87,0,4.62-1.26,4.62-5.18v-3.78c0-3.5-1.19-5.04-3.92-5.04h-3.5v14h2.8Z"/>
  <path class="st0" d="M192.29,132.26h10.43l7.98,49h-7.7l-1.4-9.73v.14h-8.75l-1.4,9.59h-7.14l7.98-49ZM200.69,165.02l-3.43-24.22h-.14l-3.36,24.22h6.93Z"/>
  <path class="st0" d="M213.78,169.92v-26.32c0-7.56,3.92-12.04,11.34-12.04s11.34,4.48,11.34,12.04v5.18h-7.28v-5.67c0-3.22-1.54-4.55-3.85-4.55s-3.85,1.33-3.85,4.55v27.37c0,3.22,1.54,4.48,3.85,4.48s3.85-1.26,3.85-4.48v-7.49h7.28v6.93c0,7.56-3.92,12.04-11.34,12.04s-11.34-4.48-11.34-12.04Z"/>
  <path class="st0" d="M241.08,132.26h21v7h-13.3v12.95h10.57v7h-10.57v15.05h13.3v7h-21v-49Z"/>
</svg>